<svg width="323" height="371" viewBox="0 0 323 371" fill="none" xmlns="http://www.w3.org/2000/svg">
<path fill-rule="evenodd" clip-rule="evenodd" d="M192.905 80.3805C199.847 75.6415 205.451 69.0556 207.118 60.4402C211.921 35.6166 176.27 31.808 166.32 42.3203C156.37 52.8325 148.804 84.2331 156.817 88.7355C160.012 90.531 167.895 90.3423 176.523 87.8919L163.084 119.375L190.648 126.761L192.905 80.3805Z" fill="#784931"/>
<path fill-rule="evenodd" clip-rule="evenodd" d="M180.796 31.846C184.868 31.7169 190.439 32.7959 192.669 33.6734C192.193 30.2157 192.601 26.615 193.928 23.3579C195.217 20.193 197.44 17.8 199.589 15.2437C200.579 14.0655 201.652 12.917 202.991 12.1718C204.356 11.4124 205.913 11.0871 207.44 11.1419C209.002 11.1979 210.533 11.6384 211.925 12.3404C212.54 12.6509 213.046 13.1031 213.642 13.4387C214.252 13.7825 214.678 13.4614 215.263 13.1805C216.672 12.5037 218.481 12.468 219.977 12.6825C221.655 12.9233 223.277 13.6184 224.686 14.5637C226.057 15.4838 227.282 16.7097 228.047 18.2222C228.387 18.8954 228.662 19.6317 228.766 20.391C228.809 20.7025 228.784 20.8736 229.038 21.0518C229.273 21.2166 229.578 21.3011 229.823 21.4636C232.191 23.0345 233.882 25.6237 234.408 28.5071C234.715 30.1894 234.345 32.9074 233.464 35.8288C232.583 38.7501 227.84 45.7178 224.578 47.849C221.667 49.7513 217.931 50.5203 214.559 50.3916C216.028 53.3469 216.632 56.7097 216.857 60.0254C217.101 63.6271 216.88 67.2424 216.202 70.8045C215.558 74.1888 214.64 77.7045 212.985 80.7421C211.437 83.5827 209.199 85.6536 206.153 86.5319C204.759 86.9342 203.321 87.132 201.888 87.281C200.476 87.4277 199.064 87.5599 197.649 87.4754C194.97 87.3152 192.069 86.442 190.65 83.9149C190.138 83.0039 189.606 81.8888 189.328 80.8689C189.228 80.5021 189.173 80.2648 189.48 80.0149C189.849 79.7157 190.36 79.5477 190.784 79.3498C193.199 78.2217 195.012 76.3373 196.024 73.7918C197.051 71.209 197.25 67.5737 194.946 65.7092C192.103 63.4076 188.105 64.1037 184.824 64.8718C184.747 60.2787 183.273 55.7663 179.871 52.7574C176.107 49.4285 171.191 47.8397 167.225 44.7861C166.192 43.9903 165.154 43.1234 164.562 41.9077C164.315 41.3996 164.038 40.7524 164.042 40.1689C164.046 39.4025 164.673 38.9269 165.182 38.4651C167.884 36.0163 176.725 31.9751 180.796 31.846Z" fill="#191847"/>
<path fill-rule="evenodd" clip-rule="evenodd" d="M184.362 222.745L141.253 373.439L109.801 484.508H86.8605L120.283 222.745H184.362Z" fill="#191847"/>
<path fill-rule="evenodd" clip-rule="evenodd" d="M195.89 222.745C196.887 300.414 200.288 342.777 201.334 349.834C202.381 356.89 218.211 401.782 248.824 484.508H225.059C186.087 405.146 164.332 360.255 159.793 349.834C155.255 339.412 141.249 297.05 120.154 222.745H195.89Z" fill="#2F3676"/>
<path fill-rule="evenodd" clip-rule="evenodd" d="M87.4415 191.353L46.8357 214.94C36.318 216.608 27.4131 219.125 20.1211 222.49C18.3458 223.789 16.0744 226.56 22.8522 226.754C29.6301 226.949 36.7512 227.457 37.4399 229.837C38.1286 232.217 33.7736 234.518 35.3265 237.795C36.3617 239.98 42.8079 235.455 54.665 224.22L93.6307 212.745L87.4415 191.353ZM249.779 206.673L228.511 206.013C242.298 258.003 249.752 285.526 250.87 288.584C253.387 295.463 247.216 305.585 244.538 311.046C252.518 314.944 252.112 301.548 262.172 306.645C271.354 311.297 278.184 319.379 289.191 313.142C290.544 312.375 292.101 309.362 288.674 306.843C280.136 300.565 267.895 289.674 266.311 286.177C264.15 281.407 258.639 254.905 249.779 206.673Z" fill="#B28B67"/>
<path fill-rule="evenodd" clip-rule="evenodd" d="M177.929 107.255L165.824 100.76C140.75 141.021 107.358 178.365 57.6737 206.12L65.164 226.456C107.287 210.809 146.491 199.798 167.077 168.805C173.986 158.403 175.955 120.802 177.929 107.255Z" fill="#C5CFD6"/>
<path fill-rule="evenodd" clip-rule="evenodd" d="M200.564 236.998C163.066 234.391 134.09 229.282 113.636 221.67C111.102 220.727 111.458 216.291 113.194 213.544C140.239 170.764 160.304 132.813 165.952 100.783C169.115 103.136 175.143 104.468 184.035 104.779C201.533 141.899 205.574 181.662 200.564 236.998Z" fill="#323337"/>
<path fill-rule="evenodd" clip-rule="evenodd" d="M190.32 103.034L180.602 101.321C176.004 114.164 137.248 292.228 104.872 347.004L224.084 368.024C230.975 313.831 221.97 245.683 210.842 188.024C226.172 207.873 237.12 238.856 243.688 280.973L267.023 279.206C262.973 205.089 238.064 146.745 192.296 104.174C192.229 103.897 192.163 103.622 192.097 103.348L191.237 103.196C190.956 102.938 190.674 102.681 190.392 102.424L190.32 103.034Z" fill="#DDE3E9"/>
</svg>
